<mxfile host="app.diagrams.net" modified="2023-11-27T05:12:21.276Z" agent="Mozilla/5.0 (Windows NT 10.0; Win64; x64) AppleWebKit/537.36 (KHTML, like Gecko) Chrome/116.0.5845.660 YaBrowser/23.9.5.660 Yowser/2.5 Safari/537.36" version="21.7.5" etag="fPKv8W4Exicwwd6AJfQF" type="github">
  <diagram name="Страница — 1" id="G1y7iYl8_TFCBLRlNBAd">
    <mxGraphModel>
      <root>
        <mxCell id="0" />
        <mxCell id="1" parent="0" />
      </root>
    </mxGraphModel>
  </diagram>
</mxfile>
